<?xml version="1.0" encoding="UTF-8"?>
<svg id="Layer_1" data-name="Layer 1" xmlns="http://www.w3.org/2000/svg" viewBox="0 0 67.28 49.43">
  <defs>
    <style>
      .cls-1, .cls-2, .cls-3, .cls-4 {
        fill: none;
      }

      .cls-1, .cls-2, .cls-3, .cls-4, .cls-5 {
        stroke: #b5b5b5;
      }

      .cls-1, .cls-5 {
        stroke-width: .5px;
      }

      .cls-3 {
        stroke-miterlimit: 4;
        stroke-width: .5px;
      }

      .cls-4 {
        stroke-miterlimit: 4;
        stroke-width: .5px;
      }

      .cls-5 {
        fill: #fff;
        stroke-miterlimit: 10;
      }
    </style>
  </defs>
  <path class="cls-2" d="m.5,25.99c.42,7.65,4.33,22.94,16.57,22.94h7.31c1.74,0,3.27-1.98,4.5-3.21,1.68-1.66,3.55-3.16,4.76-3.16,1.82,0,5.11,3.37,7.01,5.6.41.48,1,.77,1.63.77h9.2c11.47,0,15.38-18.16,15.19-22.09"/>
  <path class="cls-2" d="m33.32.5C17.7.5,7.66,8.12,2.46,14.49c7.9-4.43,53.92-3.8,61.73-1.25C60.28,6.87,50.24.5,33.32.5Z"/>
  <path class="cls-2" d="m1.42,15.18l2.8-1.87c.06-.04.13-.09.19-.13.67-.39,13.59-2.26,29.83-2.26,14.65,0,29.31,2.07,29.93,2.3.04.01.07.03.1.05l1.35.67c.7.35,1.15,1.07,1.15,1.86v10.4c0,1.24-1.08,2.22-2.31,2.11-4.32-.36-14.73-1.06-31.62-1.06s-25.92.65-29.98,1.03c-1.25.11-2.36-.87-2.36-2.13v-9.26c0-.69.35-1.34.92-1.73Z"/>
  <path class="cls-4" d="m8.21,17.38l5.08-.37c1.69-.12,3.16,1.14,3.29,2.83h0c.12,1.69-1.14,3.16-2.83,3.29l-5.08.37c-1.69.12-3.16-1.14-3.29-2.83h0c-.12-1.69,1.14-3.16,2.83-3.29Z"/>
  <path class="cls-3" d="m59.52,17.11l-5.08-.37c-1.69-.12-3.16,1.14-3.29,2.83h0c-.12,1.69,1.14,3.16,2.83,3.29l5.08.37c1.69.12,3.16-1.14,3.29-2.83h0c.12-1.69-1.14-3.16-2.83-3.29Z"/>
  <circle class="cls-5" cx="34.25" cy="21.44" r="1.46"/>
  <path class="cls-1" d="m23.44,27.67h-.52v2.27c0,1.43,1.16,2.6,2.6,2.6h16.24c1.43,0,2.6-1.16,2.6-2.6v-2.27h-20.91Z"/>
</svg>